<svg display="none" xmlns="http://www.w3.org/2000/svg">
<symbol id="shop" viewBox="0 0 24.000000 24.000000" >
<path d="M21 6H18C18 4.4087 17.3679 2.88258 16.2426 1.75736C15.1174 0.632141 13.5913 0 12 0C10.4087 0 8.88258 0.632141 7.75736 1.75736C6.63214 2.88258 6 4.4087 6 6H3C2.20435 6 1.44129 6.31607 0.87868 6.87868C0.31607 7.44129 0 8.20435 0 9L0 19C0.00158786 20.3256 0.528882 21.5964 1.46622 22.5338C2.40356 23.4711 3.67441 23.9984 5 24H19C20.3256 23.9984 21.5964 23.4711 22.5338 22.5338C23.4711 21.5964 23.9984 20.3256 24 19V9C24 8.20435 23.6839 7.44129 23.1213 6.87868C22.5587 6.31607 21.7956 6 21 6ZM12 2C13.0609 2 14.0783 2.42143 14.8284 3.17157C15.5786 3.92172 16 4.93913 16 6H8C8 4.93913 8.42143 3.92172 9.17157 3.17157C9.92172 2.42143 10.9391 2 12 2ZM22 19C22 19.7956 21.6839 20.5587 21.1213 21.1213C20.5587 21.6839 19.7956 22 19 22H5C4.20435 22 3.44129 21.6839 2.87868 21.1213C2.31607 20.5587 2 19.7956 2 19V9C2 8.73478 2.10536 8.48043 2.29289 8.29289C2.48043 8.10536 2.73478 8 3 8H6V10C6 10.2652 6.10536 10.5196 6.29289 10.7071C6.48043 10.8946 6.73478 11 7 11C7.26522 11 7.51957 10.8946 7.70711 10.7071C7.89464 10.5196 8 10.2652 8 10V8H16V10C16 10.2652 16.1054 10.5196 16.2929 10.7071C16.4804 10.8946 16.7348 11 17 11C17.2652 11 17.5196 10.8946 17.7071 10.7071C17.8946 10.5196 18 10.2652 18 10V8H21C21.2652 8 21.5196 8.10536 21.7071 8.29289C21.8946 8.48043 22 8.73478 22 9V19Z" fill="#555555"/>
</symbol>
<symbol id="bell" viewBox="0 0 26.000000 26.000000" >
<g id="Iconly/Light/Notification">
<g id="Notification">
<path id="Stroke 1" fill="#fff" clip-rule="evenodd" d="M13 19.335C19.1092 19.335 21.9354 18.5513 22.2084 15.4056C22.2084 12.2621 20.2379 12.4643 20.2379 8.60728C20.2379 5.59457 17.3824 2.16675 13 2.16675C8.61769 2.16675 5.76211 5.59457 5.76211 8.60728C5.76211 12.4643 3.79169 12.2621 3.79169 15.4056C4.06572 18.5632 6.89194 19.335 13 19.335Z" stroke="#555555" stroke-width="2" stroke-linecap="round" stroke-linejoin="round"/>
<path id="Stroke 3" d="M15.5879 22.5955C14.1101 24.2364 11.8048 24.2559 10.3128 22.5955" stroke="#555555" stroke-width="2" stroke-linecap="round" stroke-linejoin="round"/>
</g>
</g>
</symbol>
<symbol id="user" viewBox="0 0 24.000000 24.000000" >
<path d="M15.6182 11.1284C17.1539 10.0084 18.1539 8.19581 18.1539 6.15384C18.1539 2.76061 15.3933 0 12.0001 0C8.60685 0 5.84624 2.76061 5.84624 6.15384C5.84624 8.19581 6.84622 10.0084 8.38194 11.1284C4.56444 12.5892 1.84625 16.2905 1.84625 20.6154C1.84625 22.4817 3.36458 24 5.23086 24H18.7693C20.6356 24 22.1539 22.4817 22.1539 20.6154C22.1539 16.2905 19.4357 12.5892 15.6182 11.1284ZM7.69241 6.15384C7.69241 3.77859 9.62483 1.84617 12.0001 1.84617C14.3753 1.84617 16.3078 3.77859 16.3078 6.15384C16.3078 8.52909 14.3753 10.4616 12.0001 10.4616C9.62483 10.4616 7.69241 8.52909 7.69241 6.15384ZM18.7693 22.1538H5.23086C4.38257 22.1538 3.69242 21.4637 3.69242 20.6153C3.69242 16.0344 7.41918 12.3076 12.0001 12.3076C16.5811 12.3076 20.3078 16.0344 20.3078 20.6153C20.3078 21.4637 19.6176 22.1538 18.7693 22.1538Z" fill="#555555"/>
</symbol>
</svg>